<svg xmlns="http://www.w3.org/2000/svg" xmlns:xlink="http://www.w3.org/1999/xlink" width="1080" zoomAndPan="magnify" viewBox="0 0 810 809.999993" height="1080" preserveAspectRatio="xMidYMid meet" version="1.0"><defs><g/><clipPath id="a9e6858164"><path d="M 279 110.472656 L 566 110.472656 L 566 417 L 279 417 Z M 279 110.472656 " clip-rule="nonzero"/></clipPath><clipPath id="bb47a4239e"><path d="M 155 417 L 690 417 L 690 699.222656 L 155 699.222656 Z M 155 417 " clip-rule="nonzero"/></clipPath></defs><rect x="-81" width="972" fill="#ffffff" y="-80.999999" height="971.999992" fill-opacity="1"/><rect x="-81" width="972" fill="#ffffff" y="-80.999999" height="971.999992" fill-opacity="1"/><g clip-path="url(#a9e6858164)"><path fill="#5271ff" d="M 422.152344 416.019531 C 501.003906 416.019531 565.148438 332.328125 565.148438 253.480469 C 565.148438 174.632812 501.003906 110.472656 422.152344 110.472656 C 343.296875 110.472656 279.148438 174.632812 279.148438 253.480469 C 279.160156 332.324219 343.300781 416.019531 422.152344 416.019531 Z M 422.152344 416.019531 " fill-opacity="1" fill-rule="nonzero"/></g><g clip-path="url(#bb47a4239e)"><path fill="#5271ff" d="M 529.503906 417.488281 C 501.765625 438.621094 467.160156 451.195312 429.675781 451.195312 L 414.625 451.195312 C 377.132812 451.195312 342.523438 438.613281 314.792969 417.488281 C 224.222656 432.128906 155.058594 510.628906 155.058594 605.324219 C 155.058594 657.34375 274.636719 699.527344 422.152344 699.527344 C 569.65625 699.527344 689.242188 657.34375 689.242188 605.324219 C 689.242188 510.628906 620.074219 432.128906 529.503906 417.488281 Z M 529.503906 417.488281 " fill-opacity="1" fill-rule="nonzero"/></g><g fill="#5271ff" fill-opacity="1"><g transform="translate(238.612168, 649.507595)"><g><path d="M 0.582031 0 L 10.335938 -13.195312 L 10.335938 -11.265625 L 1.164062 -23.796875 L 4.035156 -23.796875 L 11.753906 -13.316406 L 10.644531 -13.296875 L 18.34375 -23.796875 L 21.085938 -23.796875 L 11.996094 -11.4375 L 11.996094 -13.175781 L 21.726562 0 L 18.816406 0 L 10.570312 -11.199219 L 11.644531 -11.199219 L 3.457031 0 Z M 0.582031 0 "/></g></g></g><g fill="#5271ff" fill-opacity="1"><g transform="translate(260.913612, 649.507595)"><g><path d="M 14.273438 0.21875 C 12.480469 0.21875 10.820312 -0.0859375 9.292969 -0.691406 C 7.765625 -1.300781 6.441406 -2.152344 5.316406 -3.246094 C 4.191406 -4.339844 3.316406 -5.621094 2.691406 -7.085938 C 2.066406 -8.554688 1.753906 -10.15625 1.753906 -11.898438 C 1.753906 -13.640625 2.066406 -15.246094 2.691406 -16.710938 C 3.316406 -18.179688 4.191406 -19.460938 5.320312 -20.554688 C 6.445312 -21.652344 7.769531 -22.503906 9.292969 -23.109375 C 10.8125 -23.714844 12.472656 -24.015625 14.269531 -24.015625 C 16.066406 -24.015625 17.722656 -23.714844 19.238281 -23.113281 C 20.757812 -22.507812 22.078125 -21.660156 23.203125 -20.570312 C 24.328125 -19.476562 25.199219 -18.195312 25.824219 -16.722656 C 26.449219 -15.253906 26.761719 -13.644531 26.761719 -11.898438 C 26.761719 -10.148438 26.449219 -8.542969 25.824219 -7.070312 C 25.199219 -5.601562 24.328125 -4.320312 23.203125 -3.230469 C 22.078125 -2.136719 20.757812 -1.289062 19.238281 -0.6875 C 17.722656 -0.0820312 16.066406 0.21875 14.273438 0.21875 Z M 14.269531 -2.027344 C 15.695312 -2.027344 17.015625 -2.273438 18.226562 -2.765625 C 19.441406 -3.257812 20.5 -3.949219 21.398438 -4.84375 C 22.300781 -5.738281 23 -6.78125 23.5 -7.976562 C 24.003906 -9.171875 24.253906 -10.480469 24.253906 -11.90625 C 24.253906 -13.328125 24.003906 -14.632812 23.503906 -15.824219 C 23.003906 -17.015625 22.304688 -18.058594 21.402344 -18.953125 C 20.503906 -19.847656 19.445312 -20.542969 18.230469 -21.035156 C 17.015625 -21.523438 15.695312 -21.769531 14.269531 -21.769531 C 12.84375 -21.769531 11.519531 -21.523438 10.304688 -21.03125 C 9.085938 -20.539062 8.023438 -19.847656 7.121094 -18.949219 C 6.21875 -18.054688 5.515625 -17.011719 5.015625 -15.820312 C 4.515625 -14.628906 4.265625 -13.324219 4.265625 -11.90625 C 4.265625 -10.488281 4.515625 -9.179688 5.015625 -7.984375 C 5.515625 -6.789062 6.214844 -5.742188 7.117188 -4.84375 C 8.019531 -3.945312 9.082031 -3.25 10.300781 -2.761719 C 11.519531 -2.273438 12.84375 -2.027344 14.269531 -2.027344 Z M 14.269531 -2.027344 "/></g></g></g><g fill="#5271ff" fill-opacity="1"><g transform="translate(289.436339, 649.507595)"><g><path d="M 3.886719 0 L 3.886719 -23.796875 L 13.570312 -23.796875 C 16.109375 -23.796875 18.339844 -23.292969 20.25 -22.28125 C 22.164062 -21.269531 23.65625 -19.871094 24.722656 -18.085938 C 25.792969 -16.300781 26.328125 -14.238281 26.328125 -11.898438 C 26.328125 -9.558594 25.792969 -7.496094 24.722656 -5.710938 C 23.65625 -3.929688 22.164062 -2.53125 20.25 -1.519531 C 18.339844 -0.507812 16.109375 0 13.570312 0 Z M 6.375 -2.1875 L 13.425781 -2.1875 C 15.542969 -2.1875 17.375 -2.601562 18.929688 -3.425781 C 20.480469 -4.253906 21.683594 -5.394531 22.539062 -6.855469 C 23.390625 -8.3125 23.816406 -9.992188 23.816406 -11.898438 C 23.816406 -13.816406 23.390625 -15.503906 22.539062 -16.953125 C 21.683594 -18.40625 20.480469 -19.542969 18.929688 -20.371094 C 17.375 -21.199219 15.542969 -21.609375 13.425781 -21.609375 L 6.375 -21.609375 Z M 6.375 -2.1875 "/></g></g></g><g fill="#5271ff" fill-opacity="1"><g transform="translate(317.517117, 649.507595)"><g><path d="M 3.886719 -23.796875 L 6.375 -23.796875 L 6.375 0 L 3.886719 0 Z M 3.886719 -23.796875 "/></g></g></g><g fill="#5271ff" fill-opacity="1"><g transform="translate(327.783944, 649.507595)"><g><path d="M 3.886719 0 L 3.886719 -23.796875 L 5.949219 -23.796875 L 16.824219 -5.226562 L 15.730469 -5.226562 L 26.515625 -23.796875 L 28.578125 -23.796875 L 28.597656 0 L 26.183594 0 L 26.164062 -20.019531 L 26.761719 -20.019531 L 16.820312 -3.039062 L 15.640625 -3.039062 L 5.628906 -20.019531 L 6.300781 -20.019531 L 6.300781 0 Z M 3.886719 0 "/></g></g></g><g fill="#5271ff" fill-opacity="1"><g transform="translate(360.250224, 649.507595)"><g><path d="M 3.886719 0 L 3.886719 -23.796875 L 6.375 -23.796875 L 6.375 -2.1875 L 19.707031 -2.1875 L 19.707031 0 Z M 3.886719 0 "/></g></g></g><g fill="#5271ff" fill-opacity="1"><g transform="translate(380.273928, 649.507595)"><g><path d="M 0.0742188 0 L 10.949219 -23.796875 L 13.421875 -23.796875 L 24.316406 0 L 21.667969 0 L 11.660156 -22.347656 L 12.691406 -22.347656 L 2.6875 0 Z M 4.347656 -6.34375 L 5.09375 -8.398438 L 18.9375 -8.398438 L 19.703125 -6.34375 Z M 4.347656 -6.34375 "/></g></g></g><g fill="#5271ff" fill-opacity="1"><g transform="translate(404.649133, 649.507595)"><g><path d="M 3.886719 0 L 3.886719 -23.796875 L 12.773438 -23.796875 C 15.796875 -23.796875 18.175781 -23.082031 19.910156 -21.644531 C 21.640625 -20.210938 22.507812 -18.210938 22.507812 -15.652344 C 22.507812 -13.96875 22.117188 -12.519531 21.335938 -11.308594 C 20.554688 -10.097656 19.441406 -9.164062 17.988281 -8.515625 C 16.535156 -7.867188 14.796875 -7.542969 12.773438 -7.542969 L 5.261719 -7.542969 L 6.375 -8.695312 L 6.375 0 Z M 20.128906 0 L 14.003906 -8.636719 L 16.742188 -8.636719 L 22.882812 0 Z M 6.375 -8.496094 L 5.261719 -9.691406 L 12.722656 -9.691406 C 15.101562 -9.691406 16.90625 -10.214844 18.144531 -11.261719 C 19.378906 -12.304688 19.996094 -13.769531 19.996094 -15.652344 C 19.996094 -17.554688 19.378906 -19.023438 18.144531 -20.058594 C 16.90625 -21.09375 15.101562 -21.609375 12.722656 -21.609375 L 5.261719 -21.609375 L 6.375 -22.828125 Z M 6.375 -8.496094 "/></g></g></g><g fill="#5271ff" fill-opacity="1"><g transform="translate(429.228317, 649.507595)"><g/></g></g><g fill="#5271ff" fill-opacity="1"><g transform="translate(438.135299, 649.507595)"><g><path d="M 13.457031 0.21875 C 10.417969 0.21875 8.03125 -0.660156 6.292969 -2.414062 C 4.550781 -4.167969 3.683594 -6.753906 3.683594 -10.171875 L 3.683594 -23.796875 L 6.171875 -23.796875 L 6.171875 -10.265625 C 6.171875 -7.453125 6.808594 -5.375 8.082031 -4.035156 C 9.355469 -2.695312 11.152344 -2.027344 13.476562 -2.027344 C 15.800781 -2.027344 17.601562 -2.695312 18.875 -4.035156 C 20.144531 -5.375 20.78125 -7.453125 20.78125 -10.265625 L 20.78125 -23.796875 L 23.234375 -23.796875 L 23.234375 -10.171875 C 23.234375 -6.753906 22.367188 -4.167969 20.625 -2.414062 C 18.886719 -0.660156 16.496094 0.21875 13.457031 0.21875 Z M 13.457031 0.21875 "/></g></g></g><g fill="#5271ff" fill-opacity="1"><g transform="translate(465.060201, 649.507595)"><g><path d="M 14.210938 0.21875 C 12.425781 0.21875 10.777344 -0.0820312 9.261719 -0.683594 C 7.742188 -1.285156 6.425781 -2.132812 5.308594 -3.226562 C 4.1875 -4.320312 3.316406 -5.601562 2.691406 -7.070312 C 2.066406 -8.542969 1.753906 -10.152344 1.753906 -11.898438 C 1.753906 -13.648438 2.066406 -15.257812 2.691406 -16.726562 C 3.316406 -18.195312 4.191406 -19.476562 5.316406 -20.570312 C 6.441406 -21.667969 7.761719 -22.515625 9.277344 -23.113281 C 10.796875 -23.714844 12.445312 -24.015625 14.230469 -24.015625 C 15.972656 -24.015625 17.601562 -23.726562 19.109375 -23.144531 C 20.617188 -22.558594 21.898438 -21.6875 22.957031 -20.527344 L 21.355469 -18.933594 C 20.382812 -19.925781 19.304688 -20.644531 18.121094 -21.097656 C 16.9375 -21.546875 15.675781 -21.769531 14.328125 -21.769531 C 12.886719 -21.769531 11.554688 -21.523438 10.328125 -21.027344 C 9.105469 -20.535156 8.039062 -19.84375 7.128906 -18.953125 C 6.222656 -18.0625 5.519531 -17.019531 5.015625 -15.820312 C 4.515625 -14.621094 4.265625 -13.316406 4.265625 -11.898438 C 4.265625 -10.484375 4.515625 -9.175781 5.015625 -7.976562 C 5.519531 -6.78125 6.222656 -5.734375 7.128906 -4.847656 C 8.039062 -3.957031 9.105469 -3.261719 10.328125 -2.769531 C 11.554688 -2.273438 12.886719 -2.027344 14.328125 -2.027344 C 15.675781 -2.027344 16.9375 -2.253906 18.121094 -2.710938 C 19.304688 -3.164062 20.382812 -3.894531 21.355469 -4.898438 L 22.957031 -3.304688 C 21.898438 -2.144531 20.617188 -1.265625 19.109375 -0.671875 C 17.601562 -0.078125 15.96875 0.21875 14.210938 0.21875 Z M 14.210938 0.21875 "/></g></g></g><g fill="#5271ff" fill-opacity="1"><g transform="translate(489.163426, 649.507595)"><g><path d="M 21.269531 0 L 21.269531 -23.796875 L 23.757812 -23.796875 L 23.757812 0 Z M 3.886719 0 L 3.886719 -23.796875 L 6.375 -23.796875 L 6.375 0 Z M 6.109375 -10.992188 L 6.109375 -13.179688 L 21.515625 -13.179688 L 21.515625 -10.992188 Z M 6.109375 -10.992188 "/></g></g></g><g fill="#5271ff" fill-opacity="1"><g transform="translate(516.802256, 649.507595)"><g><path d="M 13.457031 0.21875 C 10.417969 0.21875 8.03125 -0.660156 6.292969 -2.414062 C 4.550781 -4.167969 3.683594 -6.753906 3.683594 -10.171875 L 3.683594 -23.796875 L 6.171875 -23.796875 L 6.171875 -10.265625 C 6.171875 -7.453125 6.808594 -5.375 8.082031 -4.035156 C 9.355469 -2.695312 11.152344 -2.027344 13.476562 -2.027344 C 15.800781 -2.027344 17.601562 -2.695312 18.875 -4.035156 C 20.144531 -5.375 20.78125 -7.453125 20.78125 -10.265625 L 20.78125 -23.796875 L 23.234375 -23.796875 L 23.234375 -10.171875 C 23.234375 -6.753906 22.367188 -4.167969 20.625 -2.414062 C 18.886719 -0.660156 16.496094 0.21875 13.457031 0.21875 Z M 13.457031 0.21875 "/></g></g></g><g fill="#5271ff" fill-opacity="1"><g transform="translate(543.727159, 649.507595)"><g><path d="M 3.886719 0 L 3.886719 -23.796875 L 5.949219 -23.796875 L 22.355469 -3.113281 L 21.269531 -3.113281 L 21.269531 -23.796875 L 23.757812 -23.796875 L 23.757812 0 L 21.699219 0 L 5.289062 -20.683594 L 6.375 -20.683594 L 6.375 0 Z M 3.886719 0 "/></g></g></g></svg>